<svg width="64" height="64" fill="none" xmlns="http://www.w3.org/2000/svg"><path d="M23.581 31.998H16v2.667h32v-2.667h-7.543a14.584 14.584 0 005.21-6.666H52.8l4.399 4.892c.253.28.613.441.992.441h4.476V28h-3.883l-4.403-4.892a1.334 1.334 0 00-.992-.442H44a1.333 1.333 0 01-1.333-1.333 4 4 0 014-4H48c.736 0 1.333.597 1.333 1.333S49.93 20 50.667 20h8v-2.667h-6.895A4.008 4.008 0 0048 14.665h-1.333c-.33 0-.653.026-.969.072a14.717 14.717 0 00-2.38-4.069l2.733-1.479 5.158 3.8 1.582-2.152-5.842-4.301a1.333 1.333 0 00-1.424-.099l-10.768 5.828A1.868 1.868 0 0132 10.625a1.852 1.852 0 01.85-1.575l13.294-6.312 16.21 3.894.62-2.592-16.666-4a1.31 1.31 0 00-.883.092l-11.28 5.356c-.7-.103-1.406-.155-2.114-.156-8.1-.008-14.674 6.551-14.682 14.652-.005 4.966 2.46 9.357 6.233 12.014zM20.252 17.61c1.02-5.019 5.034-8.664 9.803-9.453a4.528 4.528 0 00-.68 3.199A5.333 5.333 0 0032 21.332a2.667 2.667 0 11-2.666 2.666h-2.666c0 2.485 1.7 4.574 4 5.166v1.501h2.666v-1.501A5.333 5.333 0 0032 18.665a2.667 2.667 0 01-1.435-4.912 4.519 4.519 0 004.102 1.339v2.24h2.666v-3.425l3.586-1.941a12.04 12.04 0 012.268 3.682A6.67 6.67 0 0040 21.332a4.001 4.001 0 002.84 3.828A11.95 11.95 0 0132 31.998c-.798 0-1.594-.081-2.376-.24-6.495-1.318-10.69-7.653-9.372-14.148z" fill="#346CD9"/><path d="M61.333 33.332v16c0 .736-.597 1.333-1.333 1.333H4a1.333 1.333 0 01-1.333-1.333V11.998c0-.736.597-1.333 1.333-1.333h13.333V7.998H4a4 4 0 00-4 4v37.334a4 4 0 004 4h17.842l-4 8h-3.175v2.666h34.666v-2.666h-3.176l-4-8H60a4 4 0 004-4v-16h-2.667zm-18.157 28H20.823l4-8h14.353l4 8z" fill="#FF2E63"/><path d="M5.333 41.332v5.333c0 .736.597 1.334 1.334 1.334H12v-2.667H8v-4H5.333zm12 4h-2.666v2.666h2.666v-2.666zm38.667 0h-4v2.666h5.333c.737 0 1.334-.597 1.334-1.333v-5.333H56v4zm-6.667 0h-2.666v2.666h2.666v-2.666zm-34.666-32H9.333a4 4 0 00-4 4v21.333H8V17.332c0-.737.597-1.334 1.333-1.334h5.334v-2.666zm29.333 32H20v2.666h24v-2.666z" fill="#FF2E63"/></svg>