<svg width="64" height="64" fill="none" xmlns="http://www.w3.org/2000/svg"><g clip-path="url(#clip0)"><path d="M16.402 27.104c.33 0 .652-.133.884-.366a1.26 1.26 0 00.366-.884c0-.329-.134-.65-.366-.883a1.26 1.26 0 00-.884-.367c-.33 0-.65.134-.884.367a1.26 1.26 0 00-.366.883c0 .329.134.651.367.884.232.233.555.366.883.366zm17.907-1.654a1.261 1.261 0 00-.885-.367 1.26 1.26 0 00-.884.366 1.26 1.26 0 00-.366.884c0 .329.134.651.366.884.232.232.555.366.884.366.33 0 .651-.134.885-.366a1.26 1.26 0 00.365-.884c0-.329-.133-.651-.365-.884zm3.491-2.242c.329 0 .651-.134.884-.366.232-.233.365-.555.365-.884 0-.329-.133-.651-.365-.884a1.259 1.259 0 00-.884-.366c-.33 0-.653.134-.885.366a1.26 1.26 0 00-.366.884c0 .329.134.651.366.884.232.232.555.366.885.366z" fill="#346CD9"/><path d="M60.25 30.75h-3.488l6.14-6.14A3.728 3.728 0 0064 21.958c0-1.002-.39-1.943-1.098-2.651l-5.57-5.57a1.25 1.25 0 00-1.767 0 3.724 3.724 0 01-2.651 1.1 3.725 3.725 0 01-2.652-1.1 3.724 3.724 0 01-1.098-2.65c0-1.002.39-1.944 1.098-2.652a1.25 1.25 0 000-1.768l-5.568-5.568A3.725 3.725 0 0042.042 0a3.72 3.72 0 00-2.651 1.099L18.745 21.744a1.25 1.25 0 101.768 1.767L41.158 2.866c.236-.236.55-.366.884-.366.334 0 .648.13.884.366l4.773 4.773a6.206 6.206 0 00-1.035 3.447c0 1.67.65 3.24 1.83 4.42a6.21 6.21 0 004.42 1.83 6.206 6.206 0 003.448-1.034l4.772 4.772c.487.487.487 1.28 0 1.768l-7.907 7.908h-5.48l4.106-4.108a1.25 1.25 0 000-1.767L39.125 12.147a1.25 1.25 0 00-1.768 0L18.755 30.75H3.75A3.754 3.754 0 000 34.5v7.874c0 .69.56 1.25 1.25 1.25A3.754 3.754 0 015 47.374a3.754 3.754 0 01-3.75 3.75c-.69 0-1.25.56-1.25 1.25v7.875A3.754 3.754 0 003.75 64h56.5A3.754 3.754 0 0064 60.25v-7.875c0-.69-.56-1.25-1.25-1.25a3.754 3.754 0 01-3.75-3.75 3.754 3.754 0 013.75-3.75c.69 0 1.25-.56 1.25-1.25V34.5a3.754 3.754 0 00-3.75-3.75zM38.24 14.798l10.96 10.96-4.99 4.992h-4.95l3.665-3.666a1.25 1.25 0 10-1.768-1.767l-5.433 5.432H22.291l15.95-15.95zM61.5 41.25a6.26 6.26 0 00-5 6.124 6.261 6.261 0 005 6.125v6.75c0 .69-.56 1.25-1.25 1.25H3.75c-.69 0-1.25-.56-1.25-1.25V53.5c2.85-.581 5-3.107 5-6.125s-2.15-5.543-5-6.124V34.5c0-.69.56-1.25 1.25-1.25h56.5c.69 0 1.25.56 1.25 1.25v6.75z" fill="#FF2E63"/><path d="M26.696 45.258a1.26 1.26 0 00.366-.884c0-.329-.133-.65-.366-.883a1.26 1.26 0 00-.884-.367 1.26 1.26 0 00-.883.367 1.258 1.258 0 00-.366.883c0 .33.133.651.366.884.232.233.555.366.884.366.328 0 .65-.133.883-.366zm12.375 0a1.26 1.26 0 00.366-.884c0-.329-.133-.65-.366-.883a1.26 1.26 0 00-.884-.367 1.26 1.26 0 00-.883.367 1.259 1.259 0 00-.367.883c0 .33.134.651.367.884.232.233.555.366.883.366.329 0 .652-.133.884-.366zm-6.187 0a1.26 1.26 0 00.366-.884c0-.329-.134-.65-.366-.883a1.26 1.26 0 00-.884-.367 1.26 1.26 0 00-.884.367 1.259 1.259 0 00-.366.883c0 .33.134.651.366.884.233.233.555.366.884.366.328 0 .651-.133.884-.366zm-13.259.366c.329 0 .651-.133.884-.366a1.26 1.26 0 00.366-.884c0-.329-.134-.65-.366-.883a1.26 1.26 0 00-.884-.367 1.26 1.26 0 00-.884.367 1.259 1.259 0 00-.366.883c0 .33.134.651.366.884.233.233.555.366.884.366zm25.634-.366a1.26 1.26 0 00.366-.884c0-.329-.134-.65-.366-.883a1.26 1.26 0 00-.884-.367 1.26 1.26 0 00-.884.367 1.259 1.259 0 00-.366.883c0 .33.134.651.366.884.233.233.555.366.884.366.328 0 .651-.133.884-.366z" fill="#346CD9"/><path d="M19.625 51.624h24.75a1.25 1.25 0 000-2.5h-24.75a1.25 1.25 0 100 2.5z" fill="#FF2E63"/><path d="M24.165 55.124a1.26 1.26 0 00-.884.367 1.26 1.26 0 00-.366.883c0 .329.134.651.366.884.233.233.555.366.884.366.33 0 .651-.133.884-.366a1.253 1.253 0 00-.884-2.134z" fill="#346CD9"/><path d="M51 37.124H13c-.69 0-1.25.56-1.25 1.25v18c0 .69.56 1.25 1.25 1.25h5.207a1.25 1.25 0 000-2.5H14.25v-15.5h35.5v15.5H29.457a1.25 1.25 0 100 2.5H51c.69 0 1.25-.56 1.25-1.25v-18c0-.69-.56-1.25-1.25-1.25z" fill="#FF2E63"/></g><defs><clipPath id="clip0"><path fill="#fff" d="M0 0h64v64H0z"/></clipPath></defs></svg>