<svg width="64" height="64" fill="none" xmlns="http://www.w3.org/2000/svg"><g clip-path="url(#clip0)"><path d="M20 45.333A1.334 1.334 0 0118.667 44V13.333A5.339 5.339 0 0124 8a5.339 5.339 0 015.333 5.333v28a1.334 1.334 0 01-2.666 0v-28a2.668 2.668 0 00-5.334 0V44c0 .736-.597 1.333-1.333 1.333z" fill="#FF2E63"/><path d="M36 42.667a1.334 1.334 0 01-1.333-1.334v-12a2.668 2.668 0 00-5.334 0 1.334 1.334 0 01-2.666 0A5.339 5.339 0 0132 24a5.339 5.339 0 015.333 5.333v12c0 .736-.597 1.334-1.333 1.334z" fill="#FF2E63"/><path d="M44 42.667a1.334 1.334 0 01-1.333-1.334V32a2.668 2.668 0 00-5.334 0 1.334 1.334 0 01-2.666 0A5.339 5.339 0 0140 26.667 5.339 5.339 0 0145.333 32v9.333c0 .736-.597 1.334-1.333 1.334z" fill="#FF2E63"/><path d="M41.333 64H25.901c-4.488 0-9.117-1.955-12.389-5.23-3.61-3.613-5.517-8.767-5.51-14.9.003-5.073 4.246-9.203 9.454-9.203H20a1.334 1.334 0 010 2.666h-2.544c-3.739 0-6.784 2.936-6.787 6.539-.005 5.488 1.587 9.864 4.728 13.013 3.278 3.28 7.574 4.448 10.504 4.448h15.432c5.147 0 9.334-4.186 9.334-9.333V34.667a2.668 2.668 0 00-5.334 0 1.334 1.334 0 01-2.666 0A5.339 5.339 0 0148 29.333a5.339 5.339 0 015.333 5.334V52c0 6.616-5.384 12-12 12z" fill="#FF2E63"/><path d="M33.333 22.187a1.33 1.33 0 01-1.03-2.176c1.545-1.894 2.364-4.203 2.364-6.678 0-5.882-4.784-10.666-10.667-10.666S13.333 7.45 13.333 13.333c0 2.475.819 4.784 2.366 6.678a1.33 1.33 0 01-.187 1.874 1.328 1.328 0 01-1.875-.186c-1.944-2.376-2.97-5.27-2.97-8.366C10.667 5.981 16.648 0 24 0s13.333 5.981 13.333 13.333c0 3.096-1.026 5.99-2.968 8.366a1.327 1.327 0 01-1.032.488z" fill="#346CD9"/></g><defs><clipPath id="clip0"><path fill="#fff" d="M0 0h64v64H0z"/></clipPath></defs></svg>